# xmcd CD database file
#
# Track frame offsets:
#	150
#	20055
#	42532
#	61205
#	81840
#	101732
#	119207
#	138845
#	153642
#	162365
#	183845
#	199332
#	214432
#	229830
#	249107
#	264630
#	282875
#	302250
#	322532
#	344767
#
# Disc length: 4659 seconds
#
# Revision: 0
# Processed by: cddbd v1.4PL0 Copyright (c) Steve Scherf et al.
# Submitted via: CDex 1.50
#
DISCID=26123114
DTITLE=Leo Gandelman - Millenium - 20 Músicas do Século XX
DYEAR=1900
DGENRE=Jazz
TTITLE0=Ocidente
TTITLE1=Solar
TTITLE2=Visões
TTITLE3=Cidade Maravilhosa
TTITLE4=The Long And Winding Road
TTITLE5=As Rosas Não Falam
TTITLE6=Faltando Um Pedaço
TTITLE7=Pérola Negra
TTITLE8=Saxsambando
TTITLE9=Castigo
TTITLE10=Lamentos
TTITLE11=Diana
TTITLE12=Cuba Libre
TTITLE13=Molambo
TTITLE14=Calçadão (Uma Tarde De Domingo No Rio)
TTITLE15=Mas Que Nada
TTITLE16=Me Deixa Em Paz
TTITLE17=Na Baixa Do Sapateiro
TTITLE18=Toda Menina Baiana
TTITLE19=Tucano Clássico (Vinheta)
EXTD=
EXTT0=
EXTT1=
EXTT2=
EXTT3=
EXTT4=
EXTT5=
EXTT6=
EXTT7=
EXTT8=
EXTT9=
EXTT10=
EXTT11=
EXTT12=
EXTT13=
EXTT14=
EXTT15=
EXTT16=
EXTT17=
EXTT18=
EXTT19=
PLAYORDER=
